<?xml version="1.0" standalone="no"?>
<!DOCTYPE svg PUBLIC "-//W3C//DTD SVG 20010904//EN"
 "http://www.w3.org/TR/2001/REC-SVG-20010904/DTD/svg10.dtd">
<svg version="1.0" xmlns="http://www.w3.org/2000/svg"
 width="66.000000pt" height="67.000000pt" viewBox="0 0 66.000000 67.000000"
 preserveAspectRatio="xMidYMid meet">
<metadata>
Created by potrace 1.11, written by Peter Selinger 2001-2013
</metadata>
<g transform="translate(0.000000,67.000000) scale(0.100000,-0.100000)"
fill="#000000" stroke="none">
<path d="M0 335 l0 -335 330 0 330 0 0 335 0 335 -330 0 -330 0 0 -335z m465
291 c65 -33 138 -110 158 -170 l15 -44 -33 20 c-22 12 -61 21 -109 25 l-75 6
6 -37 c4 -23 2 -36 -6 -36 -27 0 -7 -18 42 -38 28 -12 64 -33 79 -47 15 -14
30 -25 34 -25 3 0 4 34 2 76 l-3 76 27 -31 c34 -38 36 -82 8 -129 -11 -18 -20
-46 -20 -62 0 -18 -11 -42 -30 -63 -16 -19 -30 -39 -30 -45 0 -28 -137 -89
-177 -79 -21 5 -19 5 69 31 31 9 67 25 79 35 l24 19 -37 15 c-35 15 -317 41
-328 30 -2 -2 2 -8 10 -13 12 -8 11 -10 -5 -11 -26 -1 35 -15 106 -24 63 -7
96 -25 84 -45 -11 -18 -107 -7 -148 17 -18 10 -52 25 -75 33 -27 8 -53 26 -66
44 -36 48 -39 57 -21 49 16 -5 16 -3 2 23 -19 37 -31 116 -23 149 l6 25 40
-40 c49 -49 74 -53 31 -5 -16 19 -35 53 -42 75 -11 37 -10 42 16 81 l27 42 18
-41 c20 -43 80 -87 139 -98 l32 -7 -22 37 c-11 20 -25 36 -30 36 -4 0 -24 14
-44 31 -42 37 -45 67 -11 100 57 55 184 62 281 15z"/>
</g>
</svg>
